<?xml version="1.0" encoding="UTF-8" standalone="no"?>
<!-- Created with Inkscape (http://www.inkscape.org/) -->

<svg
   width="225.95578mm"
   height="78.805176mm"
   viewBox="0 0 225.95578 78.805176"
   version="1.1"
   id="svg1"
   xml:space="preserve"
   sodipodi:docname="sisea_logo.svg"
   inkscape:version="1.3 (0e150ed6c4, 2023-07-21)"
   xmlns:inkscape="http://www.inkscape.org/namespaces/inkscape"
   xmlns:sodipodi="http://sodipodi.sourceforge.net/DTD/sodipodi-0.dtd"
   xmlns="http://www.w3.org/2000/svg"
   xmlns:svg="http://www.w3.org/2000/svg"><sodipodi:namedview
     id="namedview1"
     pagecolor="#505050"
     bordercolor="#eeeeee"
     borderopacity="1"
     inkscape:showpageshadow="0"
     inkscape:pageopacity="0"
     inkscape:pagecheckerboard="0"
     inkscape:deskcolor="#d1d1d1"
     inkscape:document-units="mm"
     inkscape:zoom="1.6957194"
     inkscape:cx="57.79258"
     inkscape:cy="189.00533"
     inkscape:window-width="1920"
     inkscape:window-height="1009"
     inkscape:window-x="-8"
     inkscape:window-y="-8"
     inkscape:window-maximized="1"
     inkscape:current-layer="layer1" /><defs
     id="defs1"><rect
       x="-758.01849"
       y="-964.49365"
       width="545.88641"
       height="214.02271"
       id="rect50283" /></defs><g
     inkscape:label="Camada 1"
     inkscape:groupmode="layer"
     id="layer1"
     transform="translate(-35.522117,-65.597406)"><g
       id="g1"
       transform="translate(304.61866,331.36308)"
       style="stroke:#f8ffff;stroke-opacity:1;stroke-width:0.2;stroke-dasharray:none"><path
         style="fill:#ffffff;fill-opacity:0.799727;fill-rule:evenodd;stroke-width:0.2;stroke-linecap:round;stroke-linejoin:round;stroke-miterlimit:1;paint-order:markers fill stroke;stroke:#f8ffff;stroke-opacity:1;stroke-dasharray:none"
         d="m -260.4745,-196.32858 38.11053,3.70094 4.30573,-3.4072 2.6812,-3.00985 0.36553,-17.41545 1.35066,-23.44098 -1.35066,-2.39314 -15.23353,-14.34364 -8.87717,-6.08517 -10.93865,12.71645 -13.17205,9.53891 -1.00471,2.64867 2.16886,39.67459 0.79713,0.90794 z"
         id="path1"
         sodipodi:nodetypes="ccccccccccccccc" /><path
         style="fill:#f2d541;fill-opacity:1;fill-rule:evenodd;stroke:#f8ffff;stroke-width:0.2;stroke-linecap:round;stroke-linejoin:round;stroke-miterlimit:1;stroke-dasharray:none;stroke-opacity:1;paint-order:markers fill stroke"
         d="m -263.23291,-240.46771 c 11.11961,2.63687 19.06753,8.03882 23.4714,16.53044 l 0.0913,-20.2749 c -3.31022,2.09171 -5.94405,-0.0835 -8.0369,-5.84502 h 1.82147 c 1.4803,3.66798 3.20569,6.41273 6.48941,3.28782 l -0.0913,-13.97325 h 1.82658 l 0.36531,11.78137 c 2.4129,-1.01345 4.39852,-2.29507 5.47971,-5.5482 l 1.97074,0.0496 c -1.96928,4.84167 -4.84633,7.41958 -7.63309,8.60378 v 20.45757 c 1.91327,-1.16334 4.10956,-3.2939 6.15123,-4.25034 6.31057,-2.95624 12.32226,-6.27905 16.31554,-12.64542 -5.32787,-9.62701 -12.23378,-18.12684 -23.55707,-23.4714 -7.41048,3.97238 -14.89376,8.34513 -24.66433,25.29797 z"
         id="path50265"
         sodipodi:nodetypes="cccccccccccccsccc" /><path
         style="fill:#8da656;fill-opacity:1;fill-rule:evenodd;stroke:#f8ffff;stroke-width:0.2;stroke-linecap:round;stroke-linejoin:round;stroke-miterlimit:1;stroke-dasharray:none;stroke-opacity:1;paint-order:markers fill stroke"
         d="m -263.23291,-240.46771 c 11.11961,2.63687 19.06753,8.03882 23.4714,16.53044 l 0.0913,-20.2749 c -3.31022,2.09171 -5.94405,-0.0835 -8.0369,-5.84502 h 1.82147 c 1.4803,3.66798 3.20569,6.41273 6.48941,3.28782 l -0.0913,-13.97325 h 1.82658 l 0.36531,11.78137 c 2.4129,-1.01345 4.39852,-2.29507 5.47971,-5.5482 l 1.97074,0.0496 c -1.96928,4.84167 -4.84633,7.41958 -7.63309,8.60378 v 20.45757 c 1.91327,-1.16334 4.10956,-3.2939 6.15123,-4.25034 6.31057,-2.95624 12.32226,-6.27905 16.31554,-12.64542 -2.36927,-4.28107 -5.0506,-8.33924 -8.29369,-11.99616 -4.04976,-4.56653 -8.97549,-8.50737 -15.26338,-11.47524 -4.85913,2.60473 -9.74956,5.38161 -15.29562,11.76441 -2.91203,3.35138 -6.00481,7.69688 -9.36871,13.53356 z"
         id="path50265-2"
         sodipodi:nodetypes="cccccccccccccscscscc" /><g
         id="g50283"
         style="stroke:#f8ffff;stroke-opacity:1;stroke-width:0.2;stroke-dasharray:none"><g
           id="g50282"
           style="stroke:#f8ffff;stroke-opacity:1;stroke-width:0.2;stroke-dasharray:none"><path
             style="fill:#67a656;fill-opacity:1;fill-rule:evenodd;stroke:#f8ffff;stroke-width:0.2;stroke-linecap:round;stroke-linejoin:round;stroke-miterlimit:1;stroke-dasharray:none;stroke-opacity:1;paint-order:markers fill stroke"
             d="m -237.47828,-225.3985 v -10.22878 c 4.92718,-5.3207 10.7013,-10.02544 18.29904,-13.40392 l 4.16773,6.73694 c -5.28069,8.6682 -14.90714,11.36106 -22.46677,16.89576 z"
             id="path50266"
             sodipodi:nodetypes="ccccc" /><path
             style="fill:#67a656;fill-opacity:1;fill-rule:evenodd;stroke:#f8ffff;stroke-width:0.2;stroke-linecap:round;stroke-linejoin:round;stroke-miterlimit:1;stroke-dasharray:none;stroke-opacity:1;paint-order:markers fill stroke"
             d="m -239.76151,-223.93727 0.0374,-8.31124 c -3.61183,-7.31064 -9.53158,-12.65528 -19.70556,-14.37594 l -3.80327,6.15674 c 9.8673,2.12211 17.90419,7.48292 23.47143,16.53044 z"
             id="path50267"
             sodipodi:nodetypes="ccccc" /></g></g><path
         style="fill:#f2d541;fill-opacity:1;fill-rule:evenodd;stroke:#f8ffff;stroke-width:0.2;stroke-linecap:round;stroke-linejoin:round;stroke-miterlimit:1;stroke-dasharray:none;stroke-opacity:1;paint-order:markers fill stroke"
         d="m -251.24876,-256.80323 c 5.47081,-0.46111 8.71373,2.10134 11.81867,4.85106 l -0.0574,-8.79045 h 1.82658 l 0.36531,11.78137 c 2.11569,-0.92447 4.20357,-1.93793 5.47971,-5.5482 l 1.97074,0.0496 -2.63323,4.65051 c 2.69524,-3.1046 5.43444,-5.41799 8.30093,-5.44016 -4.00773,-4.52658 -8.98904,-7.79355 -14.39109,-10.51615 -4.645,2.31951 -8.9124,5.24205 -12.68022,8.96242 z"
         id="path50268"
         sodipodi:nodetypes="ccccccccccc" /><path
         id="path50264"
         style="fill:#032a8c;fill-opacity:1;fill-rule:evenodd;stroke:#f8ffff;stroke-width:0.2;stroke-linecap:round;stroke-linejoin:round;stroke-miterlimit:1;stroke-dasharray:none;stroke-opacity:1;paint-order:markers fill stroke"
         d="m -213.66086,-239.90112 c -2.6453,2.6387 -5.81713,5.79569 -9.38547,7.93078 -7.79149,4.66206 -16.0975,8.23821 -15.23112,17.6227 l -1.9637,-0.0227 c -1.17964,-14.35109 -11.2026,-20.22782 -23.99647,-23.4487 -9.32498,17.80779 -3.31912,32.41051 2.16886,39.67459 -0.009,-0.0734 -0.0142,-0.14723 -0.0155,-0.22118 10e-4,-0.1233 0.0133,-0.24625 0.0362,-0.36742 v -19.19934 c -5e-5,-1.15998 0.94015,-2.10042 2.10013,-2.10065 1.16018,-5e-5 2.1007,0.94047 2.10065,2.10065 -10e-4,0.17976 -0.0252,0.35864 -0.0718,0.53226 v 9.25112 l 10.51615,-0.009 c -0.41974,2.04778 -0.66125,3.63857 1.05007,5.14904 l -11.56622,0.0915 v 4.16564 c 0.0239,0.12728 0.036,0.25651 0.0362,0.38602 5e-5,1.16018 -0.94046,2.1007 -2.10064,2.10065 -0.16558,-0.002 -0.33036,-0.0231 -0.49093,-0.0636 14.10293,13.5552 30.5452,11.49252 43.13742,-0.37104 10.57924,-11.82807 12.57395,-26.01731 3.67626,-43.2015 z m -38.69015,22.78156 c 2.17561,1e-5 3.93929,1.76368 3.9393,3.93929 -1e-5,2.17561 -1.76369,3.93929 -3.9393,3.9393 -2.17561,-1e-5 -3.93928,-1.76369 -3.93929,-3.9393 10e-6,-2.1756 1.76369,-3.93928 3.93929,-3.93929 z m 33.07085,2.29081 c 1.16018,-5e-5 2.1007,0.94047 2.10065,2.10065 -0.001,0.1233 -0.0134,0.24625 -0.0362,0.36742 v 13.93558 c 0.0239,0.12729 0.036,0.25651 0.0362,0.38603 -2.3e-4,1.15998 -0.94067,2.10018 -2.10065,2.10013 -1.15997,5e-5 -2.10041,-0.94016 -2.10064,-2.10013 0.001,-0.12278 -0.0176,-0.24742 0.005,-0.36808 l 0.0311,-4.51018 c -1e-5,0 -24.52334,-0.0915 -24.52977,-0.0987 l -0.0186,-7.58093 c 0.14444,-1.10278 0.72235,-1.95068 2.32492,-2.19574 l 22.18728,0.0646 c -5e-5,-1.16018 0.94046,-2.1007 2.10064,-2.10065 z"
         sodipodi:nodetypes="ccccccccccccccccccccccssssscccccccccccccc" /><path
         id="path50264-5"
         style="fill:#030a8c;fill-opacity:1;fill-rule:evenodd;stroke:#f8ffff;stroke-width:0.2;stroke-linecap:round;stroke-linejoin:round;stroke-miterlimit:1;stroke-dasharray:none;stroke-opacity:1;paint-order:markers fill stroke"
         d="m -213.66085,-239.90112 c -2.6453,2.63869 -5.81714,5.79569 -9.38548,7.93078 -6.41051,3.83575 -13.16465,6.93908 -14.87661,13.14442 1.13889,0.48971 2.20854,0.96557 3.19846,1.42549 3.99884,1.85788 6.6966,3.45562 7.40193,4.65476 7.28627,-5.66033 13.85424,-10.33133 18.97662,-11.18537 -0.65541,-5.01645 -2.39515,-10.331 -5.31492,-15.97008 z m -50.57676,2.08204 c -2.29887,4.39012 -3.66231,8.58415 -4.33514,12.52275 10.21822,-0.16804 19.04139,1.87791 27.55594,6.21667 -2.79984,-10.98103 -11.92886,-15.89665 -23.2208,-18.73942 z m -4.33979,12.546 c 0,0 0.005,-0.0232 0,0 z"
         sodipodi:nodetypes="cscsccccccccccccc" /><path
         style="fill:#223459;fill-opacity:1;fill-rule:evenodd;stroke:#f8ffff;stroke-width:0.2;stroke-linecap:round;stroke-linejoin:round;stroke-miterlimit:1;stroke-dasharray:none;stroke-opacity:1;paint-order:markers fill stroke"
         d="m -268.5774,-212.74567 c 1.62248,1.82416 1.04825,2.39307 6.52931,6.42214 l -0.0207,8.17904 c -3.31575,-4.49871 -5.41184,-9.38937 -6.50861,-14.60118 z"
         id="path50269"
         sodipodi:nodetypes="cccc" /><path
         style="fill:#223459;fill-opacity:1;fill-rule:evenodd;stroke:#f8ffff;stroke-width:0.2;stroke-linecap:round;stroke-linejoin:round;stroke-miterlimit:1;stroke-dasharray:none;stroke-opacity:1;paint-order:markers fill stroke"
         d="m -260.47454,-196.32858 c 1.1568,-0.13414 1.97684,-0.6858 2.10064,-2.10065 l 0.45473,-4.4881 c 5.84176,3.44853 12.29086,4.92928 19.35033,6.3077 5.40029,-0.38311 11.13506,-1.08528 17.22418,-4.0515 l -0.0361,2.62206 c 0.39233,1.15198 0.80087,2.13874 2.10058,2.10013 1.02856,-0.0341 1.83019,-0.53515 2.06448,-2.48616 v -3.44867 c 3.79453,-2.16206 5.38829,-5.42451 7.77941,-8.28827 -0.21383,0.66214 -0.18503,0.73491 -0.50004,1.47821 -0.85125,2.00859 -1.37631,4.37532 -2.85671,6.44716 -2.48579,3.47889 -4.26813,5.22569 -5.2652,6.20183 -1.99323,1.95139 -2.505,2.53666 -7.13549,5.16868 -9.3739,5.40086 -18.88266,4.85286 -27.83021,0.17406 -5.89269,-3.96806 -6.6682,-4.90265 -7.45056,-5.63648 z"
         id="path50270"
         sodipodi:nodetypes="ccccccccccssscccc" /></g><g
       id="g50285"
       transform="translate(304.61866,331.36307)"><path
         style="font-size:98.6667px;font-family:'Arial Rounded MT Bold';-inkscape-font-specification:'Arial Rounded MT Bold, ';text-align:justify;letter-spacing:0px;word-spacing:0px;white-space:pre;fill:#0d0d0d;fill-rule:evenodd;stroke-width:17.8394;stroke-linecap:round;stroke-linejoin:round;stroke-miterlimit:1;paint-order:markers fill stroke"
         d="m -696.63995,-896.77775 q 0,6.40755 -3.32422,11.51432 -3.27604,5.10678 -9.63542,7.9974 -6.35938,2.89063 -15.07943,2.89063 -10.45444,0 -17.24741,-3.95052 -4.81771,-2.84245 -7.85286,-7.56381 -2.98698,-4.76953 -2.98698,-9.25 0,-2.60156 1.78255,-4.43229 1.83073,-1.87891 4.625,-1.87891 2.26432,0 3.80599,1.44531 1.58985,1.44532 2.69792,4.28776 1.34896,3.3724 2.89062,5.63672 1.58985,2.26433 4.4323,3.75782 2.84245,1.44531 7.46745,1.44531 6.35938,0 10.3099,-2.9388 3.9987,-2.98698 3.9987,-7.41927 0,-3.51693 -2.16797,-5.6849 -2.11979,-2.21615 -5.54037,-3.3724 -3.3724,-1.15625 -9.05729,-2.45703 -7.61199,-1.78255 -12.76694,-4.14323 -5.10677,-2.40886 -8.14193,-6.50391 -2.98698,-4.14323 -2.98698,-10.26172 0,-5.82943 3.17969,-10.35808 3.17969,-4.52865 9.20183,-6.9375 6.02214,-2.45703 14.16407,-2.45703 6.50391,0 11.22526,1.63802 4.76953,1.58984 7.90105,4.28776 3.13151,2.64974 4.57682,5.58854 1.44531,2.93881 1.44531,5.73308 0,2.55338 -1.83073,4.625 -1.78255,2.02344 -4.48047,2.02344 -2.45703,0 -3.75781,-1.20443 -1.2526,-1.25261 -2.7461,-4.04688 -1.92708,-3.9987 -4.625,-6.21484 -2.69791,-2.26433 -8.67187,-2.26433 -5.54037,0 -8.96095,2.45704 -3.37239,2.40885 -3.37239,5.82942 0,2.1198 1.15625,3.66146 1.15625,1.54167 3.17969,2.64974 2.02343,1.10808 4.09505,1.73438 2.07162,0.6263 6.84115,1.83073 5.97396,1.39714 10.79167,3.08333 4.86589,1.6862 8.23828,4.09506 3.42058,2.40885 5.29948,6.11849 1.92709,3.66146 1.92709,9.00912 z m 90.47659,0 q 0,6.40755 -3.32422,11.51432 -3.27604,5.10678 -9.63542,7.9974 -6.35938,2.89063 -15.07943,2.89063 -10.45443,0 -17.2474,-3.95052 -4.81771,-2.84245 -7.85287,-7.56381 -2.98698,-4.76953 -2.98698,-9.25 0,-2.60156 1.78255,-4.43229 1.83073,-1.87891 4.625,-1.87891 2.26433,0 3.80599,1.44531 1.58985,1.44532 2.69792,4.28776 1.34896,3.3724 2.89063,5.63672 1.58984,2.26433 4.43229,3.75782 2.84245,1.44531 7.46745,1.44531 6.35938,0 10.3099,-2.9388 3.9987,-2.98698 3.9987,-7.41927 0,-3.51693 -2.16797,-5.6849 -2.11979,-2.21615 -5.54037,-3.3724 -3.37239,-1.15625 -9.05729,-2.45703 -7.61198,-1.78255 -12.76693,-4.14323 -5.10677,-2.40886 -8.14193,-6.50391 -2.98698,-4.14323 -2.98698,-10.26172 0,-5.82943 3.17969,-10.35808 3.17968,-4.52865 9.20182,-6.9375 6.02214,-2.45703 14.16407,-2.45703 6.50391,0 11.22526,1.63802 4.76954,1.58984 7.90105,4.28776 3.13151,2.64974 4.57682,5.58854 1.44532,2.93881 1.44532,5.73308 0,2.55338 -1.83073,4.625 -1.78256,2.02344 -4.48047,2.02344 -2.45704,0 -3.75782,-1.20443 -1.2526,-1.25261 -2.74609,-4.04688 -1.92709,-3.9987 -4.625,-6.21484 -2.69792,-2.26433 -8.67188,-2.26433 -5.54037,0 -8.96094,2.45704 -3.3724,2.40885 -3.3724,5.82942 0,2.1198 1.15625,3.66146 1.15625,1.54167 3.17969,2.64974 2.02344,1.10808 4.09505,1.73438 2.07162,0.6263 6.84115,1.83073 5.97396,1.39714 10.79167,3.08333 4.86589,1.6862 8.23829,4.09506 3.42057,2.40885 5.29948,6.11849 1.92708,3.66146 1.92708,9.00912 z m 58.67971,-38.39715 h -32.23048 v 17.34375 h 29.6771 q 3.27604,0 4.86588,1.4935 1.63802,1.44531 1.63802,3.85416 0,2.40886 -1.58984,3.95053 -1.58984,1.49349 -4.91406,1.49349 h -29.6771 v 20.08985 h 33.33855 q 3.3724,0 5.0586,1.58984 1.73438,1.54167 1.73438,4.14323 0,2.50521 -1.73438,4.09505 -1.6862,1.54167 -5.0586,1.54167 h -38.87892 q -4.67317,0 -6.74479,-2.07161 -2.02344,-2.07162 -2.02344,-6.69662 v -53.09117 q 0,-3.08333 0.91537,-5.01041 0.91536,-1.97526 2.84245,-2.84245 1.97526,-0.91537 5.01041,-0.91537 h 37.77085 q 3.42058,0 5.0586,1.54167 1.6862,1.49349 1.6862,3.95052 0,2.50521 -1.6862,4.04688 -1.63802,1.49349 -5.0586,1.49349 z m 64.46096,51.59767 -3.37239,-8.86458 h -28.71356 l -3.37239,9.05729 q -1.97526,5.29948 -3.3724,7.17839 -1.39714,1.83073 -4.57682,1.83073 -2.69792,0 -4.76954,-1.97526 -2.07161,-1.97526 -2.07161,-4.48047 0,-1.44531 0.48177,-2.98698 0.48177,-1.54167 1.58984,-4.28776 l 18.06642,-45.8646 q 0.77083,-1.97526 1.83073,-4.72136 1.10807,-2.79427 2.3125,-4.625 1.2526,-1.83073 3.22786,-2.9388 2.02344,-1.15625 4.96224,-1.15625 2.98698,0 4.96225,1.15625 2.02343,1.10807 3.22786,2.89062 1.25261,1.78255 2.07162,3.85417 0.86718,2.02344 2.16797,5.44401 l 18.45183,45.57554 q 2.16796,5.20313 2.16796,7.5638 0,2.45704 -2.07161,4.52865 -2.02344,2.02344 -4.91406,2.02344 -1.6862,0 -2.89063,-0.6263 -1.20443,-0.57813 -2.02344,-1.58985 -0.81901,-1.05989 -1.78255,-3.17969 -0.91537,-2.16797 -1.58985,-3.80599 z m -28.32813,-19.60808 h 21.10157 l -10.64714,-29.14714 z"
         id="text50283"
         transform="matrix(0.53824888,0,0,0.53824888,208.62543,263.96409)"
         aria-label="S SEA" /><circle
         style="fill:#67a656;fill-opacity:1;fill-rule:evenodd;stroke:none;stroke-width:1;stroke-linecap:round;stroke-linejoin:round;stroke-miterlimit:1;stroke-dasharray:none;stroke-opacity:1;paint-order:markers fill stroke"
         id="path50284"
         cx="-156.96407"
         cy="-242.07669"
         r="3.9026041" /><path
         style="fill:#223459;fill-opacity:1;fill-rule:evenodd;stroke:#223459;stroke-width:8;stroke-linecap:round;stroke-linejoin:round;stroke-miterlimit:1;stroke-dasharray:none;stroke-opacity:1;paint-order:markers fill stroke"
         d="m -156.96407,-230.8319 v 20.66986"
         id="path50285"
         sodipodi:nodetypes="cc" /></g></g></svg>
